<svg xmlns="http://www.w3.org/2000/svg" width="340" height="67" viewBox="0 0 340 67">
  <defs>
    <style>
    </style>
  </defs>

  <svg t="1685514185985" style="margin-right:100px" viewBox="0 0 1054 1024" version="1.1" xmlns="http://www.w3.org/2000/svg" p-id="2414" width="64" height="64"><path d="M1053.807056 523.209537a51.717179 51.717179 0 0 0-8.717958-18.27959L873.696848 334.465738v-155.938965a29.177038 29.177038 0 0 0-29.036425-29.148915h-48.665894a29.177038 29.177038 0 0 0-29.036426 29.148915v29.148916a11.009938 11.009938 0 0 1-1.406122 5.835407 8.000836 8.000836 0 0 1-4.358979 2.17949 8.900754 8.900754 0 0 1-7.255591-0.731184c-1.406122-1.406122-162.674291-161.704066-204.787654-204.759531a31.750242 31.750242 0 0 0-23.90408-10.194387 41.04471 41.04471 0 0 0-21.091835 8.746081L10.337746 504.97213a3.866836 3.866836 0 0 0-1.406122 2.193551 52.842077 52.842077 0 0 0-3.627796 52.462424l3.627796 8.014897a64.780055 64.780055 0 0 0 32.678282 33.521956 12.275448 12.275448 0 0 0 5.076102 0.731184h98.766031v389.833351a34.393752 34.393752 0 0 0 31.947099 32.059589h698.603751a32.242385 32.242385 0 0 0 31.96116-32.059589V601.910203h99.483154a56.244893 56.244893 0 0 0 39.216752-28.417732 95.841297 95.841297 0 0 0 7.143101-50.282934zM629.692443 948.758395a4.949551 4.949551 0 0 1-5.076102 5.090163h-199.669369a5.427632 5.427632 0 0 1-5.076101-4.35898V698.820153a26.856936 26.856936 0 0 1 26.870997-26.969426h154.673455a26.856936 26.856936 0 0 1 26.870998 26.969426v249.938242h1.406122z" fill="#00B479" p-id="2415"></path></svg>
  <svg xmlns="http://www.w3.org/2000/svg" viewBox="0 0 800 200">
    <path d="M50,150 L90,50 L130,150 L170,50 L210,150" fill="none" stroke="pink" stroke-width="5" />
    <path d="M250,50 L290,150 L330,50 L370,150 L410,50" fill="none" stroke="green" stroke-width="5" />
    <path d="M450,150 L490,50 L530,150 L570,50 L610,150" fill="none" stroke="yellow" stroke-width="5" />
    <path d="M650,50 L690,150 L730,50 L770,150" fill="none" stroke="blue" stroke-width="5" />
    <text x="50%" y="50%" font-family="Arial" font-size="110" fill="black" text-anchor="middle" dy="0.35em">ManLand</text>
  </svg>


</svg>
